HIERARCHY
ROOT Hips
{
  OFFSET -33.9132 29.2015 117.021
  CHANNELS 6 Xposition Yposition Zposition Zrotation Xrotation Yrotation
  JOINT LeftUpLeg
  {
    OFFSET 8.64259 1.95398 -2.38835
    CHANNELS 3 Zrotation Xrotation Yrotation
    JOINT LeftLeg
    {
      OFFSET 43.7702 0 0
      CHANNELS 3 Zrotation Xrotation Yrotation
      JOINT LeftFoot
      {
        OFFSET 40.6238 0 0
        CHANNELS 3 Zrotation Xrotation Yrotation
        JOINT LeftToeBase
        {
          OFFSET 12.7242 0 0
          CHANNELS 3 Zrotation Xrotation Yrotation
          End Site
          {
            OFFSET 0 0 0
          }
        }
      }
    }
  }
  JOINT RightUpLeg
  {
    OFFSET -8.2249 1.95398 -2.59336
    CHANNELS 3 Zrotation Xrotation Yrotation
    JOINT RightLeg
    {
      OFFSET 43.5653 0 0
      CHANNELS 3 Zrotation Xrotation Yrotation
      JOINT RightFoot
      {
        OFFSET 40.6238 0 0
        CHANNELS 3 Zrotation Xrotation Yrotation
        JOINT RightToeBase
        {
          OFFSET 12.7242 0 0
          CHANNELS 3 Zrotation Xrotation Yrotation
          End Site
          {
            OFFSET 0 0 0
          }
        }
      }
    }
  }
  JOINT Spine
  {
    OFFSET 0.165834 0.87714 6.61349
    CHANNELS 3 Zrotation Xrotation Yrotation
    JOINT Spine1
    {
      OFFSET 7.38963 1.71661e-005 0
      CHANNELS 3 Zrotation Xrotation Yrotation
      JOINT Spine2
      {
        OFFSET 11.9445 1.14441e-005 0
        CHANNELS 3 Zrotation Xrotation Yrotation
        JOINT Spine3
        {
          OFFSET 14.7254 4.19617e-005 0
          CHANNELS 3 Zrotation Xrotation Yrotation
          JOINT Spine4
          {
            OFFSET 10.9679 0 0
            CHANNELS 3 Zrotation Xrotation Yrotation
            JOINT RightShoulder
            {
              OFFSET 2.46616 -1.6653 3.69651
              CHANNELS 3 Zrotation Xrotation Yrotation
              JOINT RightArm
              {
                OFFSET 13.0012 0 0
                CHANNELS 3 Zrotation Xrotation Yrotation
                JOINT RightForeArm
                {
                  OFFSET 28.7848 1.62311e-005 0
                  CHANNELS 3 Zrotation Xrotation Yrotation
                  JOINT RightHand
                  {
                    OFFSET 26.5688 1.62095e-005 0
                    CHANNELS 3 Zrotation Xrotation Yrotation
                    End Site
                    {
                      OFFSET 0 0 0
                    }
                  }
                }
              }
            }
            JOINT LeftShoulder
            {
              OFFSET 2.38034 -1.29275 -3.7523
              CHANNELS 3 Zrotation Xrotation Yrotation
              JOINT LeftArm
              {
                OFFSET 16.3182 6.07031e-005 0
                CHANNELS 3 Zrotation Xrotation Yrotation
                JOINT LeftForeArm
                {
                  OFFSET 27.0901 0 0
                  CHANNELS 3 Zrotation Xrotation Yrotation
                  JOINT LeftHand
                  {
                    OFFSET 24.5451 1.51738e-005 0
                    CHANNELS 3 Zrotation Xrotation Yrotation
                    End Site
                    {
                      OFFSET 0 0 0
                    }
                  }
                }
              }
            }
            JOINT Neck
            {
              OFFSET 5.0226 -0.0266342 0
              CHANNELS 3 Zrotation Xrotation Yrotation
              JOINT Head
              {
                OFFSET 6.69364 2.86102e-005 0
                CHANNELS 3 Zrotation Xrotation Yrotation
                End Site
                {
                  OFFSET 0 0 0
                }
              }
            }
          }
        }
      }
    }
  }
}
MOTION
Frames:	6
Frame Time:	0.0416667
9.52586 100.907 21.2225 -156.351 -82.7257 -157.214 -174.857 -2.75742 88.0797 -12.9774 5.86756 -0.193227 70.9167 6.3013 -1.74012 15.5259 -12.0052 9.332 172.825 -4.2173 89.6162 -13.5069 -0.078424 0.720974 69.8394 -6.16881 2.1864 22.6646 1.41074 4.62345 0.20918 7.64935 -90.1484 11.5756 0.346701 -0.331522 -0.0953211 0.331768 -0.346465 -22.6307 0.430304 -0.211997 -2.61805 0.430304 -0.212001 91.6663 -28.1387 -104.083 52.3412 2.80428 -7.84744 -5.55939 -45.5758 -5.60896 -16.4152 2.03924 -19.9066 -89.3293 -52.6583 80.2585 -21.8524 -6.10839 -15.7706 -12.4547 32.284 -0.0254131 7.50811 -0.54902 -12.6406 6.03469 -0.853996 -1.27409 -4.22267 -0.609168 1.14655 
9.52622 100.919 21.1965 -154.503 -82.9869 -155.159 -174.871 -2.25396 88.219 -13.2151 5.67881 -0.124834 70.9917 6.27354 -1.79299 15.8979 -12.0969 9.85335 173.003 -3.9836 89.8415 -13.3442 -0.0597307 0.772288 69.6796 -6.11281 2.31029 22.7127 1.43236 4.48637 0.229611 7.61798 -90.1789 11.6385 0.372906 -0.395419 -0.0324876 0.355145 -0.41145 -22.5678 0.47451 -0.265059 -2.55518 0.474507 -0.265064 91.6361 -27.9912 -104.197 52.49 2.70364 -7.93511 -5.54694 -45.4572 -5.60483 -16.5656 1.9318 -19.0143 -89.255 -52.709 80.3763 -21.7853 -5.98418 -15.9716 -12.5634 32.031 -0.0253427 6.66266 -0.445537 -12.5347 6.28703 -0.842258 -1.07988 -4.50562 -0.632109 0.940786 
9.48658 100.914 21.2122 -155.03 -82.9149 -155.654 -174.855 -2.33959 88.2669 -13.2629 5.62571 -0.088342 71.0726 6.2891 -1.88971 15.3846 -12.1787 9.46401 172.956 -4.15338 89.8592 -13.2384 -0.0711992 0.830142 69.6116 -6.11782 2.27695 22.762 1.43832 4.39804 0.210902 7.62409 -90.1845 11.6262 0.333108 -0.402245 -0.0447982 0.315088 -0.41653 -22.58 0.438601 -0.283532 -2.56737 0.4386 -0.283542 91.5468 -27.858 -104.429 52.545 2.72354 -7.80648 -5.54137 -45.4018 -5.60462 -16.7222 2.03973 -19.6237 -89.2311 -52.807 80.4296 -21.5609 -5.71995 -15.8209 -12.6955 32.0229 -0.0253404 7.28642 -0.5135 -12.5038 6.28294 -0.780559 -0.932776 -4.53412 -0.599846 0.906843 
9.46544 100.929 21.2491 -155.574 -82.7613 -156.345 -174.877 -2.68091 88.1568 -12.9762 5.43591 -0.103118 70.947 6.24118 -1.97201 15.464 -11.9341 9.15721 172.884 -4.0752 89.7587 -13.5316 -0.154101 0.787881 69.5737 -6.06918 1.89268 22.8108 1.36396 4.57478 0.218772 7.64141 -90.1708 11.5915 0.355276 -0.377031 -0.0794247 0.338339 -0.392313 -22.6147 0.452161 -0.252829 -2.6021 0.452168 -0.252824 91.5671 -27.935 -104.359 52.3682 2.78086 -7.87829 -5.55526 -45.5834 -5.60933 -16.0667 1.95027 -19.5914 -89.3806 -52.8248 80.2163 -21.5239 -5.84302 -15.9306 -12.6342 32.5115 -0.0254772 7.07636 -0.512189 -12.8372 6.19907 -0.811446 -0.815643 -4.45069 -0.650513 0.750901 
9.434 100.928 21.2527 -155.005 -82.7838 -155.692 -174.898 -2.57513 88.2069 -13.0976 5.49763 -0.0434061 71.0636 6.3005 -1.90825 15.5259 -12.0949 9.47399 172.994 -4.18398 89.9042 -13.2576 -0.187439 0.761258 69.5599 -6.15968 1.70087 22.5786 1.40419 4.76293 0.226042 7.63601 -90.175 11.6024 0.367724 -0.386793 -0.0685332 0.350347 -0.402601 -22.6039 0.466966 -0.258392 -2.59123 0.466969 -0.258395 91.5761 -27.9778 -104.326 52.4458 2.72677 -7.92829 -5.57229 -45.7693 -5.61852 -16.7451 1.95729 -19.0331 -89.3385 -52.5636 80.2267 -22.0229 -6.11372 -15.886 -12.4721 32.1871 -0.025386 6.05798 -0.449846 -13.3894 6.37042 -0.900327 -0.954483 -4.67682 -0.712087 0.821277 
9.43263 100.924 21.2593 -155.704 -82.7848 -156.418 -174.915 -2.62608 88.1756 -13.0788 5.68142 -0.0275229 70.9524 6.25131 -1.81542 15.7266 -12.2637 9.94377 172.915 -4.30567 89.7864 -13.1998 0.182104 0.790333 69.6198 -6.03439 2.56725 22.8019 1.44639 4.31592 0.218826 7.63909 -90.1616 11.5962 0.359691 -0.359148 -0.0747521 0.343534 -0.374642 -22.6101 0.450997 -0.234448 -2.59746 0.451 -0.234448 91.4743 -28.1398 -104.477 52.2155 2.85193 -7.87944 -5.56878 -45.7683 -5.61858 -16.2222 1.99566 -19.7466 -89.3365 -52.2727 80.1731 -22.2414 -6.13026 -15.8918 -12.4226 32.5838 -0.0254978 7.60312 -0.537158 -12.4528 6.25714 -0.887488 -1.09309 -4.4716 -0.673012 0.87522 
